<mxfile host="app.diagrams.net" agent="Mozilla/5.0 (Windows NT 10.0; Win64; x64) AppleWebKit/537.36 (KHTML, like Gecko) Chrome/135.0.0.0 Safari/537.36" version="26.2.12">
  <diagram name="Page-1" id="WYiLv4jmbkYMUt4aH29a">
    <mxGraphModel dx="2062" dy="694" grid="1" gridSize="10" guides="1" tooltips="1" connect="1" arrows="1" fold="1" page="1" pageScale="1" pageWidth="850" pageHeight="1100" math="0" shadow="0">
      <root>
        <mxCell id="0" />
        <mxCell id="1" parent="0" />
        <mxCell id="agWAGZ31P35PROJ5reOC-2" value="노인 맞춤형 건강 관리 시스템" style="swimlane;whiteSpace=wrap;html=1;" parent="1" vertex="1">
          <mxGeometry x="10" y="140" width="520" height="680" as="geometry" />
        </mxCell>
        <mxCell id="agWAGZ31P35PROJ5reOC-9" value="회원가입" style="ellipse;whiteSpace=wrap;html=1;" parent="agWAGZ31P35PROJ5reOC-2" vertex="1">
          <mxGeometry x="40" y="60" width="120" height="80" as="geometry" />
        </mxCell>
        <mxCell id="agWAGZ31P35PROJ5reOC-16" value="사용자 관리" style="ellipse;whiteSpace=wrap;html=1;" parent="agWAGZ31P35PROJ5reOC-2" vertex="1">
          <mxGeometry x="380" y="130" width="120" height="70" as="geometry" />
        </mxCell>
        <mxCell id="agWAGZ31P35PROJ5reOC-15" value="음성 안내" style="ellipse;whiteSpace=wrap;html=1;" parent="agWAGZ31P35PROJ5reOC-2" vertex="1">
          <mxGeometry x="350" y="315" width="120" height="80" as="geometry" />
        </mxCell>
        <mxCell id="agWAGZ31P35PROJ5reOC-17" value="학습 안내" style="ellipse;whiteSpace=wrap;html=1;" parent="agWAGZ31P35PROJ5reOC-2" vertex="1">
          <mxGeometry x="30" y="170" width="120" height="80" as="geometry" />
        </mxCell>
        <mxCell id="agWAGZ31P35PROJ5reOC-14" value="로그인" style="ellipse;whiteSpace=wrap;html=1;" parent="agWAGZ31P35PROJ5reOC-2" vertex="1">
          <mxGeometry x="220" y="140" width="120" height="80" as="geometry" />
        </mxCell>
        <mxCell id="agWAGZ31P35PROJ5reOC-13" value="주변 병원 정보" style="ellipse;whiteSpace=wrap;html=1;" parent="agWAGZ31P35PROJ5reOC-2" vertex="1">
          <mxGeometry x="40" y="300" width="120" height="80" as="geometry" />
        </mxCell>
        <mxCell id="agWAGZ31P35PROJ5reOC-11" value="약 알림" style="ellipse;whiteSpace=wrap;html=1;" parent="agWAGZ31P35PROJ5reOC-2" vertex="1">
          <mxGeometry x="30" y="570" width="120" height="80" as="geometry" />
        </mxCell>
        <mxCell id="agWAGZ31P35PROJ5reOC-10" value="약 정보" style="ellipse;whiteSpace=wrap;html=1;" parent="agWAGZ31P35PROJ5reOC-2" vertex="1">
          <mxGeometry x="30" y="420" width="120" height="80" as="geometry" />
        </mxCell>
        <mxCell id="agWAGZ31P35PROJ5reOC-33" value="" style="endArrow=classic;html=1;rounded=0;exitX=1;exitY=0.5;exitDx=0;exitDy=0;strokeColor=default;curved=0;dashed=1;entryX=0.062;entryY=0.203;entryDx=0;entryDy=0;entryPerimeter=0;" parent="agWAGZ31P35PROJ5reOC-2" source="agWAGZ31P35PROJ5reOC-10" edge="1">
          <mxGeometry width="50" height="50" relative="1" as="geometry">
            <mxPoint x="210" y="390" as="sourcePoint" />
            <mxPoint x="207.44000000000005" y="486.24" as="targetPoint" />
          </mxGeometry>
        </mxCell>
        <mxCell id="agWAGZ31P35PROJ5reOC-34" value="&amp;lt;&amp;lt;include&amp;gt;&amp;gt;" style="text;html=1;align=center;verticalAlign=middle;whiteSpace=wrap;rounded=0;" parent="agWAGZ31P35PROJ5reOC-2" vertex="1">
          <mxGeometry x="180" y="455" width="60" height="30" as="geometry" />
        </mxCell>
        <mxCell id="agWAGZ31P35PROJ5reOC-40" value="" style="endArrow=classic;html=1;rounded=0;entryX=0.5;entryY=0;entryDx=0;entryDy=0;dashed=1;" parent="agWAGZ31P35PROJ5reOC-2" source="agWAGZ31P35PROJ5reOC-10" target="agWAGZ31P35PROJ5reOC-11" edge="1">
          <mxGeometry width="50" height="50" relative="1" as="geometry">
            <mxPoint x="100" y="370" as="sourcePoint" />
            <mxPoint x="150" y="320" as="targetPoint" />
          </mxGeometry>
        </mxCell>
        <mxCell id="agWAGZ31P35PROJ5reOC-41" value="&amp;lt;&amp;lt;extend&amp;gt;&amp;gt;" style="text;html=1;align=center;verticalAlign=middle;whiteSpace=wrap;rounded=0;" parent="agWAGZ31P35PROJ5reOC-2" vertex="1">
          <mxGeometry x="30" y="520" width="60" height="30" as="geometry" />
        </mxCell>
        <mxCell id="agWAGZ31P35PROJ5reOC-43" value="" style="endArrow=classic;html=1;rounded=0;strokeColor=default;curved=0;dashed=1;entryX=-0.011;entryY=0.339;entryDx=0;entryDy=0;entryPerimeter=0;" parent="agWAGZ31P35PROJ5reOC-2" source="agWAGZ31P35PROJ5reOC-17" target="agWAGZ31P35PROJ5reOC-14" edge="1">
          <mxGeometry width="50" height="50" relative="1" as="geometry">
            <mxPoint x="163" y="210" as="sourcePoint" />
            <mxPoint x="220" y="290" as="targetPoint" />
            <Array as="points" />
          </mxGeometry>
        </mxCell>
        <mxCell id="agWAGZ31P35PROJ5reOC-44" value="" style="endArrow=classic;html=1;rounded=0;strokeColor=default;curved=0;dashed=1;entryX=0.081;entryY=0.847;entryDx=0;entryDy=0;entryPerimeter=0;exitX=1.001;exitY=0.296;exitDx=0;exitDy=0;exitPerimeter=0;" parent="agWAGZ31P35PROJ5reOC-2" source="agWAGZ31P35PROJ5reOC-13" target="agWAGZ31P35PROJ5reOC-14" edge="1">
          <mxGeometry width="50" height="50" relative="1" as="geometry">
            <mxPoint x="160" y="563" as="sourcePoint" />
            <mxPoint x="216" y="610" as="targetPoint" />
          </mxGeometry>
        </mxCell>
        <mxCell id="agWAGZ31P35PROJ5reOC-45" value="" style="endArrow=classic;html=1;rounded=0;strokeColor=default;curved=0;dashed=1;entryX=0.335;entryY=0.968;entryDx=0;entryDy=0;entryPerimeter=0;" parent="agWAGZ31P35PROJ5reOC-2" source="agWAGZ31P35PROJ5reOC-10" target="agWAGZ31P35PROJ5reOC-14" edge="1">
          <mxGeometry width="50" height="50" relative="1" as="geometry">
            <mxPoint x="140" y="430" as="sourcePoint" />
            <mxPoint x="210" y="409" as="targetPoint" />
          </mxGeometry>
        </mxCell>
        <mxCell id="agWAGZ31P35PROJ5reOC-47" value="" style="endArrow=classic;html=1;rounded=0;strokeColor=default;curved=0;dashed=1;entryX=0;entryY=0.5;entryDx=0;entryDy=0;" parent="agWAGZ31P35PROJ5reOC-2" target="agWAGZ31P35PROJ5reOC-15" edge="1">
          <mxGeometry width="50" height="50" relative="1" as="geometry">
            <mxPoint x="160" y="351" as="sourcePoint" />
            <mxPoint x="294" y="230" as="targetPoint" />
          </mxGeometry>
        </mxCell>
        <mxCell id="agWAGZ31P35PROJ5reOC-48" value="" style="endArrow=classic;html=1;rounded=0;strokeColor=default;curved=0;dashed=1;entryX=0;entryY=0;entryDx=0;entryDy=0;" parent="agWAGZ31P35PROJ5reOC-2" target="agWAGZ31P35PROJ5reOC-15" edge="1">
          <mxGeometry width="50" height="50" relative="1" as="geometry">
            <mxPoint x="143" y="241" as="sourcePoint" />
            <mxPoint x="277" y="120" as="targetPoint" />
          </mxGeometry>
        </mxCell>
        <mxCell id="agWAGZ31P35PROJ5reOC-49" value="&amp;lt;&amp;lt;include&amp;gt;&amp;gt;" style="text;html=1;align=center;verticalAlign=middle;whiteSpace=wrap;rounded=0;" parent="agWAGZ31P35PROJ5reOC-2" vertex="1">
          <mxGeometry x="130" y="150" width="60" height="30" as="geometry" />
        </mxCell>
        <mxCell id="agWAGZ31P35PROJ5reOC-51" value="&amp;lt;&amp;lt;include&amp;gt;&amp;gt;" style="text;html=1;align=center;verticalAlign=middle;whiteSpace=wrap;rounded=0;" parent="agWAGZ31P35PROJ5reOC-2" vertex="1">
          <mxGeometry x="250" y="240" width="60" height="30" as="geometry" />
        </mxCell>
        <mxCell id="agWAGZ31P35PROJ5reOC-50" value="&amp;lt;&amp;lt;include&amp;gt;&amp;gt;" style="text;html=1;align=center;verticalAlign=middle;whiteSpace=wrap;rounded=0;" parent="agWAGZ31P35PROJ5reOC-2" vertex="1">
          <mxGeometry x="160" y="200" width="60" height="30" as="geometry" />
        </mxCell>
        <mxCell id="agWAGZ31P35PROJ5reOC-58" value="&amp;lt;&amp;lt;extend&amp;gt;&amp;gt;" style="text;html=1;align=center;verticalAlign=middle;whiteSpace=wrap;rounded=0;" parent="agWAGZ31P35PROJ5reOC-2" vertex="1">
          <mxGeometry x="295" y="395" width="60" height="30" as="geometry" />
        </mxCell>
        <mxCell id="agWAGZ31P35PROJ5reOC-57" value="&amp;lt;&amp;lt;extend&amp;gt;&amp;gt;" style="text;html=1;align=center;verticalAlign=middle;whiteSpace=wrap;rounded=0;" parent="agWAGZ31P35PROJ5reOC-2" vertex="1">
          <mxGeometry x="280" y="330" width="60" height="30" as="geometry" />
        </mxCell>
        <mxCell id="agWAGZ31P35PROJ5reOC-56" value="&amp;lt;&amp;lt;extend&amp;gt;&amp;gt;" style="text;html=1;align=center;verticalAlign=middle;whiteSpace=wrap;rounded=0;" parent="agWAGZ31P35PROJ5reOC-2" vertex="1">
          <mxGeometry x="330" y="290" width="60" height="30" as="geometry" />
        </mxCell>
        <mxCell id="agWAGZ31P35PROJ5reOC-62" value="메뉴 관리" style="ellipse;whiteSpace=wrap;html=1;" parent="agWAGZ31P35PROJ5reOC-2" vertex="1">
          <mxGeometry x="380" y="210" width="120" height="80" as="geometry" />
        </mxCell>
        <mxCell id="agWAGZ31P35PROJ5reOC-4" value="관리자" style="shape=umlActor;verticalLabelPosition=bottom;verticalAlign=top;html=1;outlineConnect=0;" parent="1" vertex="1">
          <mxGeometry x="650" y="210" width="30" height="60" as="geometry" />
        </mxCell>
        <mxCell id="agWAGZ31P35PROJ5reOC-8" value="&amp;lt;&amp;lt;actor&amp;gt;&amp;gt;&lt;div&gt;외부 TTS 시스템&lt;/div&gt;" style="rounded=0;whiteSpace=wrap;html=1;" parent="1" vertex="1">
          <mxGeometry x="605" y="500" width="120" height="60" as="geometry" />
        </mxCell>
        <mxCell id="agWAGZ31P35PROJ5reOC-3" value="사용자" style="shape=umlActor;verticalLabelPosition=bottom;verticalAlign=top;html=1;outlineConnect=0;" parent="1" vertex="1">
          <mxGeometry x="-170" y="330" width="30" height="60" as="geometry" />
        </mxCell>
        <mxCell id="agWAGZ31P35PROJ5reOC-25" value="" style="endArrow=none;html=1;rounded=0;entryX=0;entryY=0.5;entryDx=0;entryDy=0;exitX=0.5;exitY=0.5;exitDx=0;exitDy=0;exitPerimeter=0;" parent="1" source="agWAGZ31P35PROJ5reOC-3" target="agWAGZ31P35PROJ5reOC-9" edge="1">
          <mxGeometry width="50" height="50" relative="1" as="geometry">
            <mxPoint x="10" y="170" as="sourcePoint" />
            <mxPoint x="60" y="120" as="targetPoint" />
          </mxGeometry>
        </mxCell>
        <mxCell id="agWAGZ31P35PROJ5reOC-28" value="" style="endArrow=none;html=1;rounded=0;exitX=0.5;exitY=0.5;exitDx=0;exitDy=0;exitPerimeter=0;entryX=0;entryY=0.5;entryDx=0;entryDy=0;" parent="1" source="agWAGZ31P35PROJ5reOC-3" target="agWAGZ31P35PROJ5reOC-13" edge="1">
          <mxGeometry width="50" height="50" relative="1" as="geometry">
            <mxPoint x="60" y="560" as="sourcePoint" />
            <mxPoint x="110" y="510" as="targetPoint" />
          </mxGeometry>
        </mxCell>
        <mxCell id="agWAGZ31P35PROJ5reOC-27" value="" style="endArrow=none;html=1;rounded=0;exitX=0.5;exitY=0.5;exitDx=0;exitDy=0;exitPerimeter=0;entryX=-0.002;entryY=0.422;entryDx=0;entryDy=0;entryPerimeter=0;" parent="1" source="agWAGZ31P35PROJ5reOC-3" target="agWAGZ31P35PROJ5reOC-10" edge="1">
          <mxGeometry width="50" height="50" relative="1" as="geometry">
            <mxPoint x="60" y="440" as="sourcePoint" />
            <mxPoint x="110" y="390" as="targetPoint" />
          </mxGeometry>
        </mxCell>
        <mxCell id="agWAGZ31P35PROJ5reOC-46" value="" style="endArrow=classic;html=1;rounded=0;strokeColor=default;curved=0;dashed=1;entryX=0.058;entryY=0.704;entryDx=0;entryDy=0;entryPerimeter=0;" parent="1" target="agWAGZ31P35PROJ5reOC-15" edge="1">
          <mxGeometry width="50" height="50" relative="1" as="geometry">
            <mxPoint x="146" y="558" as="sourcePoint" />
            <mxPoint x="280" y="437" as="targetPoint" />
          </mxGeometry>
        </mxCell>
        <mxCell id="agWAGZ31P35PROJ5reOC-59" value="" style="endArrow=none;html=1;rounded=0;entryX=0.5;entryY=0.5;entryDx=0;entryDy=0;entryPerimeter=0;" parent="1" target="agWAGZ31P35PROJ5reOC-4" edge="1">
          <mxGeometry width="50" height="50" relative="1" as="geometry">
            <mxPoint x="510" y="300" as="sourcePoint" />
            <mxPoint x="560" y="250" as="targetPoint" />
          </mxGeometry>
        </mxCell>
        <mxCell id="agWAGZ31P35PROJ5reOC-60" value="" style="endArrow=none;html=1;rounded=0;entryX=0.026;entryY=0.613;entryDx=0;entryDy=0;entryPerimeter=0;exitX=0.968;exitY=0.343;exitDx=0;exitDy=0;exitPerimeter=0;" parent="1" source="agWAGZ31P35PROJ5reOC-15" target="agWAGZ31P35PROJ5reOC-8" edge="1">
          <mxGeometry width="50" height="50" relative="1" as="geometry">
            <mxPoint x="470" y="500" as="sourcePoint" />
            <mxPoint x="520" y="450" as="targetPoint" />
          </mxGeometry>
        </mxCell>
        <mxCell id="agWAGZ31P35PROJ5reOC-26" value="" style="endArrow=none;html=1;rounded=0;exitX=0.5;exitY=0.5;exitDx=0;exitDy=0;exitPerimeter=0;entryX=0;entryY=0.5;entryDx=0;entryDy=0;" parent="1" source="agWAGZ31P35PROJ5reOC-3" target="agWAGZ31P35PROJ5reOC-17" edge="1">
          <mxGeometry width="50" height="50" relative="1" as="geometry">
            <mxPoint x="-90" y="250" as="sourcePoint" />
            <mxPoint x="50" y="340" as="targetPoint" />
          </mxGeometry>
        </mxCell>
        <mxCell id="agWAGZ31P35PROJ5reOC-61" value="" style="endArrow=none;html=1;rounded=0;entryX=0.5;entryY=0.5;entryDx=0;entryDy=0;entryPerimeter=0;exitX=1;exitY=0.5;exitDx=0;exitDy=0;" parent="1" source="agWAGZ31P35PROJ5reOC-9" target="agWAGZ31P35PROJ5reOC-4" edge="1">
          <mxGeometry width="50" height="50" relative="1" as="geometry">
            <mxPoint x="170" y="240" as="sourcePoint" />
            <mxPoint x="220" y="190" as="targetPoint" />
          </mxGeometry>
        </mxCell>
        <mxCell id="agWAGZ31P35PROJ5reOC-63" value="" style="endArrow=none;html=1;rounded=0;entryX=0.5;entryY=0.5;entryDx=0;entryDy=0;entryPerimeter=0;exitX=1;exitY=0.5;exitDx=0;exitDy=0;" parent="1" source="agWAGZ31P35PROJ5reOC-62" target="agWAGZ31P35PROJ5reOC-4" edge="1">
          <mxGeometry width="50" height="50" relative="1" as="geometry">
            <mxPoint x="510" y="385" as="sourcePoint" />
            <mxPoint x="560" y="335" as="targetPoint" />
          </mxGeometry>
        </mxCell>
      </root>
    </mxGraphModel>
  </diagram>
</mxfile>
